<?xml version="1.0" standalone="no"?>
<!DOCTYPE svg PUBLIC "-//W3C//DTD SVG 20010904//EN"
 "http://www.w3.org/TR/2001/REC-SVG-20010904/DTD/svg10.dtd">
<svg version="1.0" xmlns="http://www.w3.org/2000/svg"
 width="1235.000000pt" height="1300.000000pt" viewBox="0 0 1235.000000 1300.000000"
 preserveAspectRatio="xMidYMid meet">

<g transform="translate(0.000000,1300.000000) scale(0.100000,-0.100000)"
fill="#000000" stroke="none">
<path d="M3305 9570 c17 -107 78 -367 119 -506 53 -176 86 -269 152 -419 47
-108 64 -143 218 -437 70 -133 142 -305 133 -314 -2 -3 -51 7 -108 21 -162 39
-256 48 -448 42 -286 -8 -479 -59 -789 -208 -156 -75 -365 -145 -577 -193
-291 -66 -418 -97 -575 -141 -163 -46 -410 -129 -419 -142 -3 -5 -13 -8 -21
-8 -8 0 -14 -5 -13 -12 2 -7 -4 -10 -12 -7 -20 8 -126 -37 -118 -49 4 -6 -1
-8 -11 -4 -11 5 -15 3 -10 -5 5 -7 2 -9 -7 -6 -8 3 -27 -1 -44 -8 l-30 -14 37
4 c21 3 42 7 48 11 5 3 18 1 27 -5 17 -11 17 -11 1 -6 -12 3 -18 0 -18 -10 0
-8 5 -12 10 -9 6 3 10 2 10 -4 0 -5 10 -11 22 -13 31 -4 25 -22 -9 -26 -41 -5
-52 -20 -28 -38 16 -12 17 -16 6 -23 -7 -5 -10 -14 -7 -20 4 -6 1 -11 -8 -11
-8 0 -17 -4 -20 -8 -3 -5 159 -6 360 -4 390 5 572 -5 750 -39 226 -43 336
-106 363 -206 43 -158 39 -485 -10 -817 -5 -39 -12 -84 -14 -101 -18 -126 -84
-424 -136 -615 -195 -714 -488 -1295 -852 -1687 -60 -65 -61 -66 -22 -43 122
72 347 238 460 338 l48 42 -19 23 -19 22 22 -19 c22 -19 23 -19 85 39 187 173
423 452 575 680 163 245 350 626 429 875 18 59 39 93 30 50 -3 -14 -8 -81 -11
-150 -3 -69 -12 -233 -20 -365 -26 -419 -44 -722 -60 -985 -8 -140 -20 -326
-26 -413 -6 -88 -8 -161 -6 -164 9 -9 116 165 180 292 229 458 401 1170 478
1978 l12 129 -276 276 -277 277 -297 -295 -298 -295 295 298 295 297 -540 543
-540 542 542 -540 543 -540 299 299 299 299 4 106 c6 140 30 202 107 280 104
106 242 146 396 116 20 -4 20 -7 8 -277 -61 -1449 93 -2672 430 -3403 54 -118
140 -269 159 -281 8 -5 9 66 3 282 -4 159 -7 296 -7 304 0 8 -4 125 -8 260 -5
135 -12 364 -16 510 -3 146 -10 364 -13 485 -4 121 -5 224 -3 228 2 4 28 -63
57 -150 108 -320 282 -674 456 -922 168 -240 269 -363 457 -555 185 -188 424
-385 592 -488 l35 -22 -20 25 c-11 13 -30 35 -42 48 -13 13 -47 53 -77 90
-384 471 -679 1211 -821 2059 -52 309 -59 402 -60 702 0 404 18 466 159 535
115 56 369 95 619 95 l90 0 -24 28 -24 27 30 -26 c29 -26 36 -27 185 -34 254
-11 712 -51 920 -80 l35 -5 -39 15 c-22 8 -41 13 -44 11 -2 -3 -10 1 -17 7 -7
7 -201 75 -431 151 -231 76 -551 182 -712 236 l-294 97 39 -41 c34 -37 33 -37
-12 6 -38 35 -75 56 -155 88 -153 60 -330 151 -439 225 -246 164 -705 601
-1025 975 -181 211 -394 492 -551 725 -102 151 -107 158 -100 115z m2350
-2200 c10 -11 16 -20 13 -20 -3 0 -13 9 -23 20 -10 11 -16 20 -13 20 3 0 13
-9 23 -20z m80 -80 c10 -11 16 -20 13 -20 -3 0 -13 9 -23 20 -10 11 -16 20
-13 20 3 0 13 -9 23 -20z m80 -80 c10 -11 16 -20 13 -20 -3 0 -13 9 -23 20
-10 11 -16 20 -13 20 3 0 13 -9 23 -20z m-4925 -11 c-12 -8 -9 -10 13 -6 15 2
27 0 27 -5 0 -5 -16 -8 -35 -6 -27 2 -32 5 -23 15 6 7 16 13 22 13 6 0 4 -5
-4 -11z m5005 -69 c10 -11 16 -20 13 -20 -3 0 -13 9 -23 20 -10 11 -16 20 -13
20 3 0 13 -9 23 -20z"/>
<path d="M5309 8879 c-161 -23 -307 -130 -385 -282 -25 -46 -54 -165 -54 -217
0 -151 49 -271 154 -376 109 -110 216 -154 372 -154 217 0 402 132 484 345 31
81 34 243 6 325 -84 249 -321 397 -577 359z"/>
<path d="M2060 8807 c-105 -21 -240 -92 -224 -119 5 -7 2 -8 -5 -3 -16 9 -61
-32 -55 -50 3 -7 0 -16 -7 -21 -8 -5 -10 -3 -4 7 5 8 -1 5 -13 -5 -23 -20 -31
-36 -9 -18 10 9 13 -43 14 -281 1 -161 5 -300 8 -310 4 -10 2 -17 -4 -17 -9 0
-9 -5 -1 -21 7 -12 18 -18 26 -15 9 3 12 2 9 -5 -10 -15 21 -46 85 -87 338
-216 788 25 793 426 2 143 -50 275 -146 371 -124 126 -297 180 -467 148z"/>
<path d="M1736 8555 c-9 -26 -7 -32 5 -12 6 10 9 21 6 23 -2 3 -7 -2 -11 -11z"/>
<path d="M6998 8003 c7 -3 16 -2 19 1 4 3 -2 6 -13 5 -11 0 -14 -3 -6 -6z"/>
<path d="M6932 7993 c-6 -2 -9 -10 -6 -15 4 -6 2 -8 -4 -4 -13 8 -63 -14 -56
-25 3 -5 -1 -6 -9 -4 -8 3 -39 -19 -74 -53 -141 -136 -180 -346 -96 -522 30
-64 59 -100 120 -154 38 -33 46 -36 61 -25 15 12 16 12 5 -2 -11 -14 -7 -18
30 -34 83 -34 90 -36 99 -27 6 6 -3 12 -21 15 l-31 7 -1 402 c0 222 -2 411 -4
421 -2 9 1 15 6 11 5 -3 9 0 9 5 0 12 -7 13 -28 4z"/>
<path d="M6958 7963 c7 -3 16 -2 19 1 4 3 -2 6 -13 5 -11 0 -14 -3 -6 -6z"/>
<path d="M3160 6715 l-295 -295 270 -270 c172 -172 272 -265 276 -257 15 27
58 1028 47 1096 -2 17 -56 -32 -298 -274z"/>
<path d="M7102 6831 c-11 -7 -11 -9 0 -14 9 -3 15 1 15 9 0 8 -1 14 -1 14 -1
0 -7 -4 -14 -9z"/>
<path d="M6873 6735 c0 -7 8 -10 19 -7 10 2 18 6 18 7 0 1 -8 5 -18 7 -11 3
-19 0 -19 -7z"/>
<path d="M6750 6700 c-34 -13 -44 -23 -41 -36 3 -18 2 -18 -18 0 -16 15 -24
16 -35 7 -8 -6 -23 -14 -35 -16 -44 -10 -58 -14 -131 -39 -41 -15 -86 -29
-100 -32 -36 -7 -643 -209 -720 -239 -36 -14 -53 -23 -39 -21 63 13 400 48
577 60 200 14 230 22 212 56 -7 13 -7 21 0 25 5 3 11 3 11 -2 4 -29 3 -39 -5
-50 -6 -10 12 -13 83 -13 50 0 91 2 91 5 0 13 -77 85 -83 78 -12 -11 -8 -25 6
-17 7 4 9 3 4 -2 -5 -5 -13 -10 -18 -10 -5 -1 -11 -3 -14 -4 -3 -1 -11 -3 -17
-4 -7 -1 -12 -10 -11 -20 1 -18 0 -18 -15 -1 -13 13 -14 19 -4 22 6 3 9 10 6
15 -4 7 -2 8 4 4 15 -9 16 6 1 21 -8 8 -7 13 2 18 7 5 10 4 5 -3 -10 -16 13
-25 30 -11 13 11 11 16 -16 41 -17 15 -35 26 -39 24 -4 -3 -7 4 -7 15 0 17 3
16 27 -7 15 -14 31 -26 36 -25 4 1 8 -3 8 -8 0 -22 14 -20 34 5 17 22 19 29 9
37 -9 6 -6 7 10 4 22 -5 49 23 35 37 -3 3 3 6 15 6 12 0 22 -5 22 -11 0 -5 5
-7 11 -3 6 3 7 9 3 13 -15 11 -15 31 1 31 8 0 15 5 15 10 0 6 4 10 9 10 5 0 7
-10 3 -22 -5 -20 -3 -21 10 -10 13 10 17 10 21 -2 7 -18 47 -17 47 1 0 20 -18
24 -29 6 -6 -10 -11 -13 -11 -7 0 21 26 44 52 46 15 1 25 5 22 7 -3 3 10 11
28 17 29 11 30 13 8 13 -14 0 -45 -8 -70 -19z m-223 -123 c0 -8 -6 -14 -14
-14 -9 0 -10 4 -2 14 6 7 12 13 14 13 1 0 2 -6 2 -13z m-92 -47 c-3 -5 -12
-10 -18 -10 -7 0 -6 4 3 10 19 12 23 12 15 0z m12 -18 c-10 -10 -15 -21 -12
-24 3 -2 -2 -5 -10 -5 -12 0 -10 6 7 24 25 27 39 32 15 5z"/>
<path d="M6650 6630 c0 -5 5 -10 11 -10 5 0 7 5 4 10 -3 6 -8 10 -11 10 -2 0
-4 -4 -4 -10z"/>
<path d="M6660 6611 c-13 -11 -28 -17 -32 -15 -10 6 -148 -126 -148 -140 0 -6
10 2 23 18 l23 29 51 -52 51 -52 66 3 c36 1 66 6 66 10 0 4 -6 8 -14 8 -8 0
-17 6 -19 13 -4 10 -6 10 -6 0 -1 -7 -6 -13 -12 -13 -5 0 -8 4 -5 9 4 5 2 11
-3 13 -11 4 -17 165 -7 176 4 4 7 3 6 -3 -7 -32 2 -165 10 -165 13 0 13 136 0
161 -13 24 -19 23 -50 0z m-38 -43 c-19 -19 -14 -32 6 -17 14 11 15 11 5 -1
-16 -18 -50 -20 -50 -4 0 7 5 12 11 11 6 -1 10 4 8 11 -1 8 2 11 8 7 5 -3 10
-1 10 6 0 7 3 9 7 6 4 -4 1 -13 -5 -19z m-64 -62 c-7 -8 -15 -12 -17 -11 -5 6
10 25 20 25 5 0 4 -6 -3 -14z m74 -59 c-7 -8 -11 -16 -9 -18 1 -2 -4 2 -10 10
-7 8 -13 20 -12 25 0 6 3 5 6 -1 8 -20 26 -15 18 5 -5 13 -4 14 6 5 9 -9 9
-16 1 -26z"/>
<path d="M6808 6423 c7 -3 16 -2 19 1 4 3 -2 6 -13 5 -11 0 -14 -3 -6 -6z"/>
<path d="M6869 6412 c9 -7 10 -11 2 -15 -7 -4 -8 -5 0 -4 15 3 13 21 -3 25
-10 3 -10 2 1 -6z"/>
<path d="M6798 6403 c6 -2 18 -2 25 0 6 3 1 5 -13 5 -14 0 -19 -2 -12 -5z"/>
<path d="M6910 3917 c0 -1 -4 -17 -9 -35 -6 -20 -6 -30 0 -27 5 4 9 15 9 26 0
11 4 17 10 14 6 -3 7 1 4 9 -5 14 -14 22 -14 13z"/>
<path d="M7119 3833 c-13 -16 -12 -17 4 -4 9 7 17 15 17 17 0 8 -8 3 -21 -13z"/>
<path d="M6846 3788 c-8 -12 -13 -25 -10 -30 3 -4 0 -8 -7 -8 -16 0 -3 -13 16
-16 9 -1 11 4 8 14 -5 11 -3 13 6 7 10 -6 11 -3 2 12 -7 14 -7 23 1 31 7 7 9
12 6 12 -4 0 -14 -10 -22 -22z"/>
<path d="M6800 3710 c-6 -11 -7 -20 -2 -20 6 0 12 9 15 20 3 11 3 20 1 20 -2
0 -8 -9 -14 -20z"/>
<path d="M6790 3664 c0 -16 -2 -17 -10 -4 -6 9 -10 10 -10 3 0 -19 20 -26 26
-8 4 9 4 19 0 22 -3 4 -6 -2 -6 -13z"/>
<path d="M6802 3610 c-25 -23 -27 -35 -10 -46 7 -5 8 -3 3 6 -6 9 1 21 21 37
16 12 24 23 18 23 -5 0 -20 -9 -32 -20z"/>
<path d="M6739 3607 c-1 -7 -1 -17 0 -24 1 -6 -4 -15 -10 -19 -8 -5 -9 -3 -4
6 5 9 4 11 -3 6 -7 -4 -12 -14 -12 -22 0 -8 -5 -14 -10 -14 -17 0 5 -33 24
-36 9 -1 16 4 16 12 0 8 -6 11 -16 7 -12 -4 -15 -2 -12 8 3 8 16 13 33 12 25
-2 26 -1 11 10 -16 12 -16 14 -2 26 9 8 16 17 16 21 0 13 -30 20 -31 7z"/>
<path d="M6884 3599 c-19 -22 -19 -22 4 -8 12 8 22 17 22 21 0 12 -6 9 -26
-13z"/>
<path d="M6830 3589 c0 -5 5 -7 10 -4 6 3 10 8 10 11 0 2 -4 4 -10 4 -5 0 -10
-5 -10 -11z"/>
<path d="M6810 3572 c0 -7 6 -12 13 -12 6 0 -10 -20 -38 -45 -27 -25 -51 -41
-53 -35 -2 5 -10 10 -17 10 -7 0 -16 7 -19 16 -6 15 -8 15 -27 -1 -17 -17 -18
-20 -5 -34 9 -8 19 -11 23 -7 4 4 1 11 -7 16 -23 14 -7 18 19 4 l25 -13 -26
-12 c-15 -6 -24 -17 -22 -23 3 -7 -10 -22 -28 -35 -18 -14 -30 -20 -26 -16 4
4 2 15 -5 24 -10 14 -10 14 5 3 18 -15 25 -7 23 25 -2 15 2 20 13 15 10 -3 13
-1 8 6 -4 7 -10 12 -14 12 -14 0 -73 -84 -68 -97 3 -6 0 -10 -7 -7 -7 2 -32
-19 -57 -48 -44 -51 -44 -51 -11 -32 18 10 38 25 44 33 10 12 9 13 -2 6 -10
-5 -12 -4 -7 4 4 6 12 9 17 5 14 -8 50 26 42 39 -3 6 -1 7 5 3 17 -10 93 46
87 63 -3 8 0 11 9 8 8 -3 30 9 50 29 19 19 37 34 39 34 8 0 67 58 67 65 0 4
-6 3 -13 -4 -10 -8 -17 -7 -25 1 -9 9 -12 9 -12 0z"/>
<path d="M6650 3430 c0 -5 5 -10 10 -10 6 0 10 5 10 10 0 6 -4 10 -10 10 -5 0
-10 -4 -10 -10z"/>
</g>
</svg>
